<svg id="图层_1" data-name="图层 1" xmlns="http://www.w3.org/2000/svg" xmlns:xlink="http://www.w3.org/1999/xlink" viewBox="0 0 354 377.01"><defs><style>.cls-1,.cls-10,.cls-14,.cls-15{fill:none;}.cls-2{opacity:0.99;}.cls-17,.cls-3{fill:#f6c24e;}.cls-4{fill:#4f3925;}.cls-5{clip-path:url(#clip-path);}.cls-19,.cls-6{fill:#73c4b0;}.cls-7{fill:#f096aa;}.cls-8{fill:#e99292;}.cls-9{fill:#f8c6b3;}.cls-10,.cls-11,.cls-14,.cls-15,.cls-18,.cls-19,.cls-20,.cls-9{stroke:#4f3925;}.cls-10,.cls-11,.cls-14,.cls-15,.cls-17,.cls-18,.cls-19,.cls-20,.cls-9{stroke-linecap:round;stroke-linejoin:round;}.cls-11,.cls-18,.cls-19,.cls-20,.cls-9{stroke-width:8px;}.cls-10,.cls-17{stroke-width:6px;}.cls-11,.cls-12,.cls-13{fill:#fff;}.cls-12{opacity:0.5;}.cls-14{stroke-width:4px;}.cls-15{stroke-width:7px;}.cls-16{fill:#f7c8d8;}.cls-17{stroke:#fce6ea;}.cls-18{fill:#73aad8;}.cls-20{fill:#aad5a0;}</style><clipPath id="clip-path" transform="translate(-23 -9.49)"><polygon id="SVGID" class="cls-1" points="200 17.49 172 89.49 228 89.49 200 17.49"/></clipPath></defs><title>简宝</title><g class="cls-2"><path class="cls-3" d="M172,93.49A4,4,0,0,1,168.27,88l28-72a4,4,0,0,1,7.46,0l28,72A4,4,0,0,1,228,93.49Z" transform="translate(-23 -9.49)"/><path class="cls-4" d="M200,17.49l28,72H172l28-72m0-8a8,8,0,0,0-7.46,5.1l-28,72A8,8,0,0,0,172,97.49h56a8,8,0,0,0,7.46-10.9l-28-72A8,8,0,0,0,200,9.49Z" transform="translate(-23 -9.49)"/><g class="cls-5"><rect class="cls-6" x="141.82" y="56" width="70.37" height="24"/></g><g class="cls-5"><rect class="cls-7" x="141.82" y="7.68" width="70.37" height="24"/></g><g class="cls-5"><rect class="cls-3" x="141.82" y="31.84" width="70.37" height="24"/><rect class="cls-8" x="141.82" y="7.68" width="70.37" height="24"/></g><path class="cls-9" d="M58,85.65s43.29-4.06,61.34,20L70.7,146.7S72,113.11,58,85.65Z" transform="translate(-23 -9.49)"/><path class="cls-9" d="M342,85.65s-43.29-4.06-61.34,20L329.3,146.7S328,113.11,342,85.65Z" transform="translate(-23 -9.49)"/><path class="cls-10" d="M58,85.65S88.7,99.53,87,123.73" transform="translate(-23 -9.49)"/><path class="cls-10" d="M342,85.65S311.3,99.53,313,123.73" transform="translate(-23 -9.49)"/><path class="cls-11" d="M359.36,225.86a45.21,45.21,0,0,1-7.4-26.33c0-.84,0-1.68,0-2.52,0-64.35-68.05-108.5-152-108.5S48,132.66,48,197c0,.84,0,1.68,0,2.52a45.21,45.21,0,0,1-7.4,26.33A78.7,78.7,0,0,0,27,270c0,64.34,77.45,112.5,173,112.5S373,334.35,373,270A78.7,78.7,0,0,0,359.36,225.86Z" transform="translate(-23 -9.49)"/><circle class="cls-4" cx="101" cy="244.51" r="31.26"/><path class="cls-12" d="M122.23,278.64a17.35,17.35,0,0,1-11.63-4.25c2.18,3.47,6.56,5.84,11.63,5.84s9.45-2.37,11.62-5.84A17.33,17.33,0,0,1,122.23,278.64Z" transform="translate(-23 -9.49)"/><circle class="cls-13" cx="126.83" cy="242.22" r="11.06" transform="translate(-157.13 151.13) rotate(-45)"/><circle class="cls-13" cx="139.7" cy="255.17" r="3.5" transform="translate(-162.52 164.03) rotate(-45)"/><circle class="cls-13" cx="110.6" cy="262.63" r="4.41" transform="translate(-176.31 145.64) rotate(-45)"/><path class="cls-14" d="M87.05,250.88a36.48,36.48,0,0,1,40-32.6" transform="translate(-23 -9.49)"/><path class="cls-14" d="M89.54,239.14c-3.68-.31-8.14-4-8.14-8.72" transform="translate(-23 -9.49)"/><path class="cls-14" d="M87.63,245.63a10.92,10.92,0,0,1-11.15-4.24" transform="translate(-23 -9.49)"/><circle class="cls-4" cx="249.5" cy="244.51" r="31.26"/><path class="cls-12" d="M270.74,278.64a17.35,17.35,0,0,1-11.63-4.25c2.18,3.47,6.56,5.84,11.63,5.84s9.45-2.37,11.62-5.84A17.35,17.35,0,0,1,270.74,278.64Z" transform="translate(-23 -9.49)"/><circle class="cls-13" cx="275.34" cy="242.22" r="11.06" transform="translate(-113.63 256.14) rotate(-45)"/><circle class="cls-13" cx="288.21" cy="255.17" r="3.5" transform="translate(-119.02 269.04) rotate(-45)"/><circle class="cls-13" cx="259.11" cy="262.63" r="4.41" transform="translate(-132.82 250.65) rotate(-45)"/><path class="cls-14" d="M309.45,250.88a36.48,36.48,0,0,0-40-32.6" transform="translate(-23 -9.49)"/><path class="cls-14" d="M307,239.14c3.68-.31,8.14-4,8.14-8.72" transform="translate(-23 -9.49)"/><path class="cls-14" d="M308.87,245.63A10.92,10.92,0,0,0,320,241.39" transform="translate(-23 -9.49)"/><path class="cls-15" d="M226.72,314.33s-6.07,9-13.16,9S200,316.82,200,316.82s-6.48,6.48-13.56,6.48-13.16-9-13.16-9" transform="translate(-23 -9.49)"/><ellipse class="cls-16" cx="71.73" cy="289.01" rx="33.7" ry="12.62"/><line class="cls-17" x1="65.42" y1="292.02" x2="59.42" y2="286.01"/><line class="cls-17" x1="84.04" y1="292.02" x2="78.03" y2="286.01"/><ellipse class="cls-16" cx="282.27" cy="289.01" rx="33.7" ry="12.62"/><line class="cls-17" x1="275.97" y1="292.02" x2="269.96" y2="286.01"/><line class="cls-17" x1="294.58" y1="292.02" x2="288.58" y2="286.01"/><path class="cls-18" d="M231.55,171.57a42.53,42.53,0,0,0,0-85.06H189V129A42.54,42.54,0,0,0,231.55,171.57Z" transform="translate(-23 -9.49)"/><path class="cls-19" d="M145.91,148.59a43.9,43.9,0,1,0,75-31h0l-31.05-31-31,31h0A43.73,43.73,0,0,0,145.91,148.59Z" transform="translate(-23 -9.49)"/><path class="cls-20" d="M157.47,149.61A31.54,31.54,0,0,0,189,118.06V86.51H157.47a31.55,31.55,0,1,0,0,63.1Z" transform="translate(-23 -9.49)"/></g></svg>